<?xml version='1.0' encoding='UTF-8'?>
<svg x="0px" y="0px" viewBox="0 0 32 32" version="1.1" xmlns="http://www.w3.org/2000/svg" xmlns:xlink="http://www.w3.org/1999/xlink" xml:space="preserve" id="Data_Labels_Left" style="enable-background:new 0 0 32 32">
  <style type="text/css">
	.Green{fill:#039C23;}
	.Yellow{fill:#FFB115;}
</style>
  <path d="M27,6c-1.7,0-3,1.3-3,3c0,0.5,0.1,0.9,0.3,1.3l-10,10C13.9,20.1,13.5,20,13,20c-1.7,0-3,1.3-3,3s1.3,3,3,3  s3-1.3,3-3c0-0.5-0.1-0.9-0.3-1.3l10-10c0.4,0.2,0.8,0.3,1.3,0.3c1.7,0,3-1.3,3-3S28.7,6,27,6z M13,24c-0.6,0-1-0.4-1-1s0.4-1,1-1  s1,0.4,1,1S13.6,24,13,24z M27,10c-0.6,0-1-0.4-1-1s0.4-1,1-1s1,0.4,1,1S27.6,10,27,10z" class="Yellow" />
  <path d="M8,26H2v-4h6V26z M22,6h-6v4h6V6z" class="Green" />
</svg>